<?xml version="1.0" encoding="iso-8859-1"?>
<!-- Generator: Adobe Illustrator 19.0.0, SVG Export Plug-In . SVG Version: 6.00 Build 0)  -->
<svg version="1.1" id="Capa_1" xmlns="http://www.w3.org/2000/svg" xmlns:xlink="http://www.w3.org/1999/xlink" x="0px" y="0px"
	 viewBox="0 0 512.002 512.002" style="enable-background:new 0 0 512.002 512.002;" xml:space="preserve">
<path style="fill:#F9F5F2;" d="M187.764,358.466v42.649c0.06,18.817,15.302,34.059,34.119,34.119h68.238
	c18.817-0.06,34.059-15.302,34.119-34.119v-42.649H187.764z"/>
<path style="fill:#F08AB7;" d="M472.317,437.964c-6.832-31.432-34.622-53.866-66.788-53.908H324.24v17.06
	c-0.06,18.817-15.302,34.059-34.119,34.119h-68.238c-18.817-0.06-34.059-15.302-34.119-34.119v-17.06h-81.289
	c-32.166,0.043-59.956,22.476-66.788,53.908l-13.989,65.509h460.608L472.317,437.964z"/>
<path style="fill:#FDCA6E;" d="M187.764,358.466c-18.842,0-34.119-15.277-34.119-34.119V204.93h110.887
	c36.593,0.026,70.413-19.491,88.71-51.179h5.118v170.596c0,18.842-15.277,34.119-34.119,34.119v25.589h68.238V145.222
	c0-2.9-0.085-5.715-0.256-8.53C387.233,61.485,322.227,4.549,247.02,9.539c-68.264,4.521-122.633,58.89-127.153,127.153
	c-0.256,2.815-0.341,5.63-0.341,8.53v238.834h68.238V358.466z"/>
<g>
	<path style="fill:#F9F5F2;" d="M119.525,136.692v8.53c0-2.9,0.085-5.715,0.341-8.53H119.525z"/>
	<path style="fill:#F9F5F2;" d="M392.478,136.692h-0.256c0.171,2.815,0.256,5.63,0.256,8.53V136.692z"/>
	<path style="fill:#F9F5F2;" d="M353.241,153.752c-18.296,31.688-52.117,51.204-88.71,51.179H153.645v119.417
		c0,18.842,15.277,34.119,34.119,34.119H324.24c18.842,0,34.119-15.277,34.119-34.119V153.752L353.241,153.752L353.241,153.752z"/>
</g>
<path style="fill:#231F20;" d="M480.659,436.147c-7.822-35.262-39.007-60.425-75.13-60.621h-4.521V136.692
	c-0.051-0.657-0.188-1.297-0.409-1.919C395.003,54.943,325.75-5.235,245.92,0.361c-71.65,5.024-128.8,61.773-134.335,133.389
	c-0.375,0.938-0.58,1.936-0.597,2.943v238.834h-4.521c-36.132,0.196-67.317,25.376-75.122,60.655L17.356,501.69
	c-0.981,4.606,1.953,9.135,6.559,10.125c0.589,0.128,1.186,0.188,1.783,0.188h460.608c4.708,0,8.53-3.821,8.53-8.53
	c0-0.597-0.06-1.194-0.188-1.783L480.659,436.147z M128.055,145.222c0-2.636,0.077-5.186,0.324-8.018
	c1.638-28.387,12.786-55.401,31.663-76.666C206.777,7.534,287.63,2.459,340.626,49.194c25.47,22.459,40.969,54.13,43.084,88.019l0,0
	c0.162,2.644,0.239,5.288,0.239,8.001v230.313H332.77v-9.383l0,0c0.154,0,0.29-0.102,0.444-0.136
	c2.431-0.529,4.802-1.262,7.105-2.209c0.853-0.333,1.569-0.785,2.363-1.169c1.552-0.734,3.062-1.552,4.521-2.465
	c0.853-0.546,1.629-1.169,2.431-1.766c1.271-0.938,2.491-1.945,3.659-3.02c0.759-0.717,1.467-1.459,2.175-2.226
	c1.058-1.143,2.047-2.346,2.968-3.6c0.623-0.853,1.22-1.706,1.783-2.559c0.844-1.382,1.604-2.806,2.295-4.265
	c0.435-0.904,0.853-1.783,1.271-2.721c0.631-1.672,1.16-3.378,1.578-5.118c0.222-0.853,0.512-1.655,0.682-2.516
	c0.537-2.644,0.819-5.331,0.844-8.026V153.752c0-4.708-3.821-8.53-8.53-8.53h-5.118c-3.045,0-5.86,1.629-7.378,4.265
	c-16.829,28.993-47.801,46.863-81.331,46.914H153.645c-4.708,0-8.53,3.821-8.53,8.53v119.417c0.026,2.721,0.307,5.433,0.853,8.103
	c0.171,0.853,0.461,1.706,0.682,2.516c0.418,1.74,0.947,3.446,1.578,5.118c0.375,0.938,0.853,1.817,1.279,2.73
	c0.682,1.45,1.442,2.849,2.286,4.214c0.563,0.853,1.16,1.706,1.783,2.559c0.921,1.254,1.911,2.457,2.968,3.6
	c0.708,0.768,1.416,1.51,2.175,2.226c1.16,1.066,2.38,2.073,3.651,3.02c0.853,0.597,1.587,1.22,2.44,1.766
	c1.459,0.913,2.968,1.732,4.521,2.465c0.793,0.384,1.544,0.853,2.363,1.169c2.303,0.947,4.674,1.68,7.105,2.209
	c0.154,0,0.29,0.102,0.444,0.136l0,0v9.349h-51.187L128.055,145.222L128.055,145.222z M204.823,239.049
	c9.425,0,17.06-7.634,17.06-17.06c-0.017-3.002-0.836-5.945-2.371-8.53h45.02c10.995-0.043,21.922-1.732,32.413-5.007
	c-7.421,5.715-8.811,16.369-3.088,23.79c5.715,7.421,16.369,8.811,23.79,3.088c7.421-5.715,8.811-16.369,3.088-23.79
	c-3.233-4.205-8.257-6.653-13.554-6.611c-0.23,0-0.444,0.06-0.674,0.068c16.795-6.824,31.663-17.648,43.323-31.526v150.875
	c0,14.134-11.456,25.589-25.589,25.589H187.764c-14.134,0-25.589-11.455-25.589-25.589V213.46h27.961
	c-1.535,2.585-2.354,5.527-2.371,8.53C187.764,231.407,195.398,239.049,204.823,239.049z M196.293,366.996H315.71v34.119
	c0,14.134-11.455,25.589-25.589,25.589h-68.238c-14.134,0-25.589-11.455-25.589-25.589V366.996z M408.233,494.943l-7.344-44.048
	l-16.821,2.798l6.875,41.25H121.061l6.875-41.25l-16.821-2.798l-7.344,44.048h-67.53l11.78-55.162
	c6.073-27.449,30.34-47.042,58.455-47.195h72.759v8.53c0.026,23.542,19.107,42.623,42.649,42.649h68.238
	c23.542-0.026,42.623-19.107,42.649-42.649v-8.53h72.759c28.106,0.154,52.364,19.729,58.455,47.161l11.78,55.196H408.233z"/>
<g>
</g>
<g>
</g>
<g>
</g>
<g>
</g>
<g>
</g>
<g>
</g>
<g>
</g>
<g>
</g>
<g>
</g>
<g>
</g>
<g>
</g>
<g>
</g>
<g>
</g>
<g>
</g>
<g>
</g>
</svg>
