<?xml version="1.0" encoding="iso-8859-1"?>
<!-- Generator: Adobe Illustrator 19.0.0, SVG Export Plug-In . SVG Version: 6.00 Build 0)  -->
<svg version="1.1" id="Capa_1" xmlns="http://www.w3.org/2000/svg" xmlns:xlink="http://www.w3.org/1999/xlink" x="0px" y="0px"
	 viewBox="0 0 512.004 512.004" style="enable-background:new 0 0 512.004 512.004;" xml:space="preserve">
<path style="fill:#24537E;" d="M479.882,435.377c-7.071-32.531-35.833-55.749-69.124-55.793h-84.131l-70.624,70.624l-70.624-70.624
	h-84.131c-33.291,0.044-62.052,23.262-69.124,55.793l-14.478,67.799H494.36L479.882,435.377z"/>
<g>
	<path style="fill:#F9F5F2;" d="M114.754,238.335c0,19.501,15.811,35.312,35.312,35.312v-70.624
		C130.565,203.023,114.754,218.834,114.754,238.335z"/>
	<path style="fill:#F9F5F2;" d="M397.252,238.335c0-19.501-15.811-35.312-35.312-35.312v70.624
		C381.441,273.647,397.252,257.836,397.252,238.335z"/>
</g>
<g>
	<path style="fill:#A05D35;" d="M361.939,203.023h8.828c9.755,0,17.656-7.901,17.656-17.656v-26.484h-26.484V203.023z"/>
	<path style="fill:#A05D35;" d="M123.582,158.883v26.484c0,9.755,7.901,17.656,17.656,17.656h8.828v-44.14H123.582z"/>
</g>
<g>
	<polygon style="fill:#58595B;" points="361.939,158.883 388.424,158.883 384.01,132.399 379.595,105.914 132.41,105.914 
		127.996,132.399 123.582,158.883 150.066,158.883 	"/>
	<polygon style="fill:#58595B;" points="379.595,105.914 384.01,132.399 441.392,97.086 256.003,8.806 70.614,97.086 
		127.996,132.399 132.41,105.914 	"/>
</g>
<g>
	<path style="fill:#F9F5F2;" d="M150.066,158.883v158.905c0,19.501,15.811,35.312,35.312,35.312h141.249
		c19.501,0,35.312-15.811,35.312-35.312V158.883L150.066,158.883L150.066,158.883z"/>
	<polygon style="fill:#F9F5F2;" points="326.627,379.584 326.627,353.1 185.379,353.1 185.379,379.584 256.003,450.208 	"/>
</g>
<g>
	<path style="fill:#231F20;" d="M488.507,433.505c-8.078-36.504-40.362-62.555-77.749-62.75h-75.303v-9.711
		c20.534-4.22,35.286-22.291,35.312-43.257v-36.195c23.792-4.758,39.214-27.905,34.456-51.697
		c-2.039-10.188-7.619-19.316-15.758-25.778c4.979-4.97,7.786-11.715,7.786-18.751v-26.484c-0.035-0.256-0.088-0.512-0.159-0.768
		c0.009-0.23,0.009-0.45,0-0.68l-3.372-20.622l52.324-32.196c4.14-2.569,5.42-8.007,2.851-12.156
		c-0.892-1.439-2.181-2.595-3.708-3.319L259.799,0.861c-2.401-1.148-5.191-1.148-7.592,0L66.818,89.141
		c-2.922,1.395-4.855,4.264-5.023,7.495c0,0.168,0.044,0.318,0.044,0.477h-0.053v50.885l-25.557,51.079l15.802,7.892l9.755-19.519
		v24.401h17.656V187.45l9.755,19.519l15.802-7.892l-25.557-51.106V112.88l38.843,23.924l-3.434,20.631
		c-0.009,0.23-0.009,0.45,0,0.68c-0.044,0.256-0.079,0.512-0.097,0.768v26.484c0,7.036,2.807,13.781,7.786,18.742
		c-19.007,15.078-22.185,42.71-7.098,61.717c6.462,8.139,15.599,13.728,25.796,15.767v36.195
		c0.026,20.967,14.778,39.038,35.312,43.257v9.711h-75.303c-37.396,0.194-69.68,26.263-77.757,62.776L9.012,501.331
		c-1.015,4.767,2.022,9.455,6.789,10.479c0.609,0.132,1.227,0.194,1.845,0.194H494.36c4.873,0,8.828-3.955,8.828-8.828
		c0-0.618-0.062-1.236-0.194-1.845L488.507,433.505z M256.003,437.725l-61.796-61.796v-14.001h123.593v14.001L256.003,437.725z
		 M141.238,194.195c-4.873,0-8.828-3.955-8.828-8.828v-17.656h8.828V194.195z M134.008,150.055l5.879-35.312h232.23l5.879,35.312
		H134.008z M379.595,167.711v17.656c0,4.873-3.955,8.828-8.828,8.828v-26.484H379.595z M370.767,263.31v-49.949
		c13.789,4.864,21.028,19.995,16.164,33.785C384.257,254.702,378.315,260.644,370.767,263.31z M121.446,118L89.065,98.075
		l166.938-79.452l166.938,79.452L390.56,118l-2.26-13.533c-0.706-4.255-4.388-7.38-8.704-7.38H132.41
		c-4.317,0-7.998,3.125-8.704,7.38L121.446,118z M123.582,238.335c0.018-11.22,7.08-21.223,17.656-24.975v49.949
		C130.662,259.558,123.591,249.556,123.582,238.335z M158.894,317.788V167.711h194.217v150.077
		c0,14.628-11.856,26.484-26.484,26.484H185.379C170.75,344.272,158.894,332.416,158.894,317.788z M40.749,437.249
		c6.294-28.409,31.401-48.678,60.499-48.837h80.476l65.451,65.451v40.485H116.343l7.115-42.692l-17.409-2.896l-7.601,45.588H28.557
		L40.749,437.249z M413.557,494.348l-7.601-45.588l-17.409,2.896l7.115,42.692H264.831v-40.485l65.451-65.451h80.476
		c29.088,0.159,54.195,20.41,60.49,48.81l12.2,57.126L413.557,494.348L413.557,494.348z"/>
	<circle style="fill:#231F20;" cx="308.971" cy="220.679" r="17.656"/>
	<circle style="fill:#231F20;" cx="203.035" cy="220.679" r="17.656"/>
</g>
<g>
</g>
<g>
</g>
<g>
</g>
<g>
</g>
<g>
</g>
<g>
</g>
<g>
</g>
<g>
</g>
<g>
</g>
<g>
</g>
<g>
</g>
<g>
</g>
<g>
</g>
<g>
</g>
<g>
</g>
</svg>
