<?xml version="1.0" encoding="iso-8859-1"?>
<!-- Generator: Adobe Illustrator 19.0.0, SVG Export Plug-In . SVG Version: 6.00 Build 0)  -->
<svg version="1.1" id="Capa_1" xmlns="http://www.w3.org/2000/svg" xmlns:xlink="http://www.w3.org/1999/xlink" x="0px" y="0px"
	 viewBox="0 0 512 512" style="enable-background:new 0 0 512 512;" xml:space="preserve">
<path style="fill:#FDCA6E;" d="M256.001,8.533L256.001,8.533c84.83,0,153.6,68.77,153.6,153.6V256
	c0,37.7-30.566,68.267-68.267,68.267H170.667c-37.7,0-68.267-30.566-68.267-68.267v-93.867
	C102.401,77.303,171.171,8.533,256.001,8.533z"/>
<path style="fill:#F9F5F2;" d="M221.867,435.2h68.267c18.825-0.06,34.074-15.309,34.133-34.133V358.4H187.734v42.667
	C187.794,419.891,203.043,435.14,221.867,435.2z"/>
<path style="fill:#43ADDC;" d="M472.406,437.931c-6.835-31.445-34.637-53.888-66.816-53.931h-81.323v17.067
	c-0.06,18.825-15.309,34.074-34.133,34.133h-68.267c-18.825-0.06-34.074-15.309-34.133-34.133V384h-81.323
	c-32.179,0.043-59.981,22.485-66.816,53.931l-13.995,65.536h460.8L472.406,437.931z"/>
<g>
	<path style="fill:#F9F5F2;" d="M119.467,247.467c0,18.85,15.283,34.133,34.133,34.133v-68.267
		C134.751,213.333,119.467,228.617,119.467,247.467z"/>
	<path style="fill:#F9F5F2;" d="M392.534,247.467c0-18.85-15.283-34.133-34.133-34.133V281.6
		C377.251,281.6,392.534,266.317,392.534,247.467z"/>
	<path style="fill:#F9F5F2;" d="M358.401,153.6h-204.8v170.667c0,18.85,15.283,34.133,34.133,34.133h136.533
		c18.85,0,34.133-15.283,34.133-34.133V153.6z"/>
</g>
<g>
	<path style="fill:#231F20;" d="M480.743,436.113c-7.817-35.285-39.014-60.459-75.153-60.646h-72.789v-9.387
		c17.237-3.575,30.515-17.374,33.417-34.739c31.804-15.863,51.908-48.333,51.917-83.874v-85.333C418.134,72.593,345.549,0,256.001,0
		S93.867,72.593,93.867,162.133v85.333c0.017,35.533,20.122,68.011,51.917,83.866c2.901,17.365,16.171,31.172,33.417,34.748v9.387
		h-72.789c-36.147,0.188-67.354,25.387-75.162,60.681l-13.995,65.536c-0.981,4.608,1.954,9.139,6.562,10.129
		c0.589,0.128,1.186,0.188,1.783,0.188h460.8c4.71,0,8.533-3.823,8.533-8.533c0-0.597-0.06-1.195-0.188-1.783L480.743,436.113z
		 M196.267,366.933h119.467v34.133c0,14.14-11.46,25.6-25.6,25.6h-68.267c-14.14,0-25.6-11.46-25.6-25.6V366.933z M366.934,223.326
		c13.329,4.702,20.326,19.328,15.625,32.657c-2.577,7.305-8.32,13.047-15.625,15.625V223.326z M110.934,247.467v-85.333
		c0-80.119,64.947-145.067,145.067-145.067s145.067,64.947,145.067,145.067v85.333c-0.034,25.591-12.843,49.468-34.133,63.659
		V289.28c23.091-4.693,38.016-27.213,33.323-50.304c-3.405-16.794-16.529-29.909-33.323-33.323v-86.187h-17.067v25.6h-17.067v-25.6
		h-17.067v25.6h-17.067v-25.6h-17.067v25.6h-17.067v-25.6h-17.067v25.6h-17.067v-25.6h-17.067v25.6h-17.067v-25.6h-17.067v25.6
		h-17.067v-25.6h-17.067V153.6l0,0v52.053c-23.091,4.693-38.016,27.213-33.323,50.304c3.413,16.794,16.529,29.909,33.323,33.323
		v21.845C123.777,296.934,110.968,273.058,110.934,247.467z M145.067,271.607c-13.329-4.702-20.326-19.328-15.625-32.657
		c2.577-7.305,8.32-13.047,15.625-15.625V271.607z M162.134,324.267V162.133h187.733v162.133c0,14.14-11.46,25.6-25.6,25.6H187.734
		C173.594,349.867,162.134,338.406,162.134,324.267z M408.295,494.933l-7.347-44.075l-16.828,2.816l6.878,41.259H121.003
		l6.878-41.259l-16.828-2.816l-7.347,44.075H36.148l11.785-55.194c6.084-27.46,30.353-47.053,58.479-47.206h72.789v8.533
		c0.026,23.552,19.115,42.641,42.667,42.667h68.267c23.552-0.026,42.641-19.115,42.667-42.667v-8.533h72.789
		c28.117,0.154,52.386,19.729,58.47,47.181l11.793,55.219H408.295z"/>
	<circle style="fill:#231F20;" cx="307.201" cy="221.867" r="17.067"/>
	<circle style="fill:#231F20;" cx="204.801" cy="221.867" r="17.067"/>
</g>
<g>
</g>
<g>
</g>
<g>
</g>
<g>
</g>
<g>
</g>
<g>
</g>
<g>
</g>
<g>
</g>
<g>
</g>
<g>
</g>
<g>
</g>
<g>
</g>
<g>
</g>
<g>
</g>
<g>
</g>
</svg>
