<?xml version="1.0" encoding="iso-8859-1"?>
<!-- Generator: Adobe Illustrator 19.0.0, SVG Export Plug-In . SVG Version: 6.00 Build 0)  -->
<svg version="1.1" id="Capa_1" xmlns="http://www.w3.org/2000/svg" xmlns:xlink="http://www.w3.org/1999/xlink" x="0px" y="0px"
	 viewBox="0 0 512.001 512.001" style="enable-background:new 0 0 512.001 512.001;" xml:space="preserve">
<path style="fill:#43ADDC;" d="M487.864,428.069c-7.323-33.691-37.111-57.737-71.589-57.783H357.67
	c-6.199,14.208-17.344,25.673-31.36,32.274c-0.549,0.274-1.189,0.457-1.737,0.731c-9.563-3.968-17.911-10.359-24.229-18.56
	c-2.615,15.333-9.966,29.467-21.029,40.411c-6.565,6.601-14.537,11.63-23.314,14.72c-8.777-3.09-16.75-8.119-23.314-14.72
	c-11.054-10.944-18.414-25.079-21.029-40.411c-6.318,8.201-14.665,14.592-24.229,18.56c-0.549-0.274-1.189-0.457-1.737-0.731
	c-14.016-6.601-25.161-18.066-31.36-32.274H95.727c-34.478,0.046-64.265,24.091-71.589,57.783L9.144,498.286h201.143v-36.571h91.429
	v36.571h201.143L487.864,428.069z"/>
<path style="fill:#787D82;" d="M185.693,402.561c0.549,0.274,1.189,0.457,1.737,0.731c9.563-3.968,17.911-10.359,24.229-18.56
	c2.615,15.333,9.966,29.467,21.029,40.411c6.565,6.601,14.537,11.63,23.314,14.72c8.777-3.09,16.75-8.119,23.314-14.72
	c11.054-10.944,18.414-25.079,21.029-40.411c6.318,8.201,14.665,14.592,24.229,18.56c0.549-0.274,1.189-0.457,1.737-0.731
	c14.016-6.601,25.161-18.066,31.36-32.274c3.959-8.421,6.491-17.445,7.497-26.697v-0.183c0-0.183-0.091-0.366-0.091-0.549
	c-4.206-28.434-27.794-52.663-60.709-64.731c-31.269-11.218-65.463-11.218-96.731,0c-32.914,12.069-56.503,36.297-60.709,64.731
	c0,0.183-0.091,0.366-0.091,0.549v0.183c1.006,9.253,3.538,18.277,7.497,26.697C160.532,384.494,171.677,395.96,185.693,402.561z"/>
<g>
	<path style="fill:#F9F5F2;" d="M109.716,224.001c0,20.197,16.375,36.571,36.571,36.571v-73.143
		C126.091,187.429,109.716,203.804,109.716,224.001z"/>
	<path style="fill:#F9F5F2;" d="M402.287,224.001c0-20.197-16.375-36.571-36.571-36.571v73.143
		C385.912,260.572,402.287,244.197,402.287,224.001z"/>
</g>
<path style="fill:#C84339;" d="M201.144,123.429c0-10.103,8.183-18.286,18.286-18.286h73.143c10.103,0,18.286,8.183,18.286,18.286
	v36.571h64V89.848c0-42.048-34.085-76.133-76.133-76.133l0,0h-85.449c-42.048,0-76.133,34.085-76.133,76.133l0,0v70.153h64V123.429z
	"/>
<path style="fill:#787D82;" d="M292.573,105.144H219.43c-10.103,0-18.286,8.183-18.286,18.286v36.571h109.714v-36.571
	C310.859,113.336,302.676,105.144,292.573,105.144z"/>
<path style="fill:#F9F5F2;" d="M310.859,160.001H146.287v182.857h0.64c4.206-28.434,27.794-52.663,60.709-64.731
	c31.269-11.218,65.463-11.218,96.731,0c32.914,12.069,56.503,36.297,60.709,64.731h0.64V160.001H310.859z"/>
<rect x="210.287" y="461.715" style="fill:#C84339;" width="91.429" height="36.571"/>
<g>
	<path style="fill:#231F20;" d="M496.797,426.131c-8.366-37.806-41.801-64.786-80.521-64.987h-45.394
		c1.371-4.718,2.395-9.536,3.045-14.409c0.594-1.207,0.914-2.533,0.933-3.877v-74.057c24.741-5.029,40.731-29.157,35.703-53.897
		c-3.648-17.984-17.71-32.046-35.703-35.703v-10.057h91.429v-18.286h-82.286v-61.01c-0.055-47.077-38.199-85.221-85.275-85.275
		h-85.449c-47.067,0.055-85.221,38.208-85.275,85.275v70.153c0,5.047,4.096,9.143,9.143,9.143v10.057
		c-24.741,5.029-40.731,29.157-35.703,53.897c3.657,17.993,17.71,32.046,35.703,35.703v74.057c0.009,1.271,0.329,2.523,0.914,3.657
		c0.649,4.946,1.673,9.838,3.072,14.629H95.727c-38.729,0.201-72.165,27.2-80.53,65.015L0.203,496.376
		c-1.051,4.937,2.094,9.792,7.031,10.853c0.631,0.137,1.271,0.201,1.911,0.201h493.714c5.047,0,9.143-4.096,9.143-9.143
		c0-0.64-0.064-1.28-0.201-1.911L496.797,426.131z M248.34,426.058c-3.355-2.139-6.464-4.645-9.271-7.47
		c-9.673-9.618-16.101-22.016-18.405-35.456c-0.613-3.557-3.264-6.427-6.766-7.314c-0.731-0.183-1.481-0.274-2.24-0.274h-0.146
		c-1.179,0.027-2.35,0.293-3.429,0.777c-0.256,0.11-0.485,0.238-0.731,0.366c-1.097,0.558-2.066,1.326-2.853,2.277
		c-4.59,5.952-10.414,10.843-17.07,14.327c-11.072-5.934-19.831-15.424-24.85-26.944c-3.346-7.095-5.55-14.683-6.537-22.464
		c0.256-1.646,0.759-3.246,1.161-4.864c0.338-1.335,0.549-2.688,0.987-3.995c0.53-1.591,1.307-3.127,1.984-4.681
		c0.576-1.335,1.042-2.743,1.719-3.995c0.795-1.518,1.829-2.953,2.743-4.434c0.795-1.262,1.481-2.569,2.377-3.803
		c1.07-1.472,2.359-2.853,3.557-4.261c0.978-1.152,1.829-2.35,2.907-3.465c1.353-1.417,2.917-2.743,4.398-4.059
		c1.115-1.006,2.121-2.075,3.31-3.035c1.728-1.408,3.657-2.688,5.541-4.005c1.115-0.777,2.13-1.627,3.301-2.377
		c2.222-1.417,4.626-2.67,7.022-3.941c0.978-0.521,1.829-1.125,2.88-1.618c3.538-1.737,7.159-3.291,10.862-4.645
		c29.239-10.405,61.184-10.405,90.423,0c3.685,1.353,7.296,2.898,10.825,4.635c1.481,0.722,2.807,1.582,4.224,2.368
		c1.902,1.042,3.867,2.039,5.659,3.182c1.463,0.914,2.743,1.984,4.142,2.971c1.573,1.125,3.227,2.203,4.699,3.401
		c1.472,1.198,2.478,2.267,3.712,3.401c1.234,1.134,2.743,2.405,3.986,3.657c1.243,1.253,2.085,2.478,3.136,3.712
		c1.051,1.234,2.331,2.624,3.328,3.995s1.673,2.67,2.514,3.995c0.841,1.326,1.829,2.789,2.624,4.242
		c0.795,1.454,1.198,2.743,1.829,4.16s1.39,2.962,1.911,4.489c0.521,1.527,0.713,2.862,1.061,4.297
		c0.347,1.435,0.841,2.99,1.079,4.517c-0.96,7.854-3.163,15.506-6.537,22.665c-5.029,11.493-13.778,20.955-24.832,26.88
		c-6.638-3.456-12.453-8.311-17.042-14.226c-3.136-3.959-8.887-4.617-12.846-1.481c-1.746,1.39-2.926,3.365-3.319,5.568
		c-2.313,13.486-8.777,25.911-18.496,35.547c-2.752,2.761-5.797,5.211-9.079,7.314c-2.478,1.545-5.074,2.907-7.762,4.05
		C253.368,428.92,250.799,427.594,248.34,426.058z M393.144,224.001c-0.018,11.621-7.333,21.979-18.286,25.865v-51.73
		C385.812,202.03,393.135,212.38,393.144,224.001z M146.287,89.848c0.037-36.983,30.007-66.953,66.99-66.99h85.449
		c36.983,0.046,66.953,30.007,66.99,66.99v61.01h-45.714v-27.429c0-15.15-12.279-27.429-27.429-27.429H219.43
		c-15.15,0-27.429,12.279-27.429,27.429v27.429h-45.714V89.848z M274.287,132.572v18.286h-9.143v-18.286h-18.286v18.286h-9.143
		v-18.286H219.43v18.286h-9.143v-27.429c0-5.047,4.096-9.143,9.143-9.143h73.143c5.047,0,9.143,4.096,9.143,9.143v27.429h-9.143
		v-18.286H274.287z M201.144,169.144h155.429v133.815c-0.53-0.649-1.207-1.207-1.755-1.829c-1.701-1.957-3.529-3.84-5.431-5.687
		c-1.335-1.317-2.651-2.633-4.087-3.886c-2.112-1.829-4.379-3.547-6.683-5.257c-1.481-1.097-2.889-2.231-4.453-3.273
		c-2.67-1.774-5.486-3.383-8.411-4.983c-1.417-0.786-2.743-1.646-4.215-2.386c-4.553-2.304-9.225-4.343-14.007-6.107
		c-33.317-11.904-69.723-11.904-103.04,0c-4.782,1.765-9.463,3.803-14.016,6.107c-1.481,0.741-2.807,1.609-4.233,2.395
		c-2.88,1.6-5.733,3.2-8.393,4.974c-1.573,1.042-2.99,2.185-4.489,3.291c-2.286,1.701-4.571,3.41-6.638,5.239
		c-1.445,1.253-2.743,2.578-4.123,3.895c-1.883,1.829-3.712,3.721-5.413,5.669c-0.549,0.64-1.225,1.198-1.755,1.829V169.144H201.144
		z M118.859,224.001c0.018-11.621,7.333-21.979,18.286-25.865v51.73C126.2,245.98,118.877,235.621,118.859,224.001z M219.43,489.144
		v-18.286h73.143v18.286H219.43z M419.174,489.144l-7.872-47.214l-18.03,2.999l7.369,44.215h-89.783v-27.429
		c0-5.047-4.096-9.143-9.143-9.143h-91.429c-5.047,0-9.143,4.096-9.143,9.143v27.429h-89.783l7.369-44.215l-18.03-2.999
		l-7.872,47.214H20.445l12.626-59.136c6.519-29.422,32.521-50.414,62.656-50.578h53.029c0.055,0.101,0.128,0.183,0.183,0.283
		c1.765,3.136,3.73,6.153,5.897,9.033c0.347,0.466,0.695,0.914,1.051,1.408c2.085,2.67,4.352,5.193,6.775,7.552
		c0.43,0.421,0.869,0.823,1.307,1.225c2.414,2.258,4.992,4.343,7.717,6.226c0.366,0.247,0.75,0.466,1.115,0.704
		c2.825,1.883,5.806,3.529,8.905,4.919c0.229,0.11,1.381,0.585,1.627,0.677c2.331,1.179,5.056,1.298,7.488,0.338
		c5.87-2.359,11.355-5.577,16.274-9.545c4.197,11.045,10.725,21.065,19.145,29.358c7.534,7.561,16.667,13.33,26.734,16.878
		c1.966,0.695,4.123,0.695,6.089,0c10.03-3.529,19.136-9.271,26.651-16.786c8.439-8.32,14.994-18.368,19.2-29.449
		c4.928,3.968,10.414,7.186,16.283,9.545c2.496,0.722,5.157,0.594,7.57-0.357l1.216-0.503c3.182-1.417,6.235-3.099,9.143-5.019
		c0.357-0.229,0.713-0.43,1.061-0.667c2.779-1.911,5.422-4.032,7.89-6.327l1.225-1.143c2.469-2.395,4.773-4.955,6.894-7.671
		c0.329-0.421,0.64-0.85,0.969-1.289c2.194-2.907,4.187-5.961,5.961-9.143c0.064-0.091,0.119-0.183,0.174-0.274h53.029
		c30.126,0.165,56.128,21.138,62.647,50.551l12.581,59.191L419.174,489.144L419.174,489.144z"/>
	<circle style="fill:#231F20;" cx="310.859" cy="205.715" r="18.286"/>
	<circle style="fill:#231F20;" cx="201.144" cy="205.715" r="18.286"/>
</g>
<g>
</g>
<g>
</g>
<g>
</g>
<g>
</g>
<g>
</g>
<g>
</g>
<g>
</g>
<g>
</g>
<g>
</g>
<g>
</g>
<g>
</g>
<g>
</g>
<g>
</g>
<g>
</g>
<g>
</g>
</svg>
