<?xml version="1.0" encoding="iso-8859-1"?>
<!-- Generator: Adobe Illustrator 19.0.0, SVG Export Plug-In . SVG Version: 6.00 Build 0)  -->
<svg version="1.1" id="Capa_1" xmlns="http://www.w3.org/2000/svg" xmlns:xlink="http://www.w3.org/1999/xlink" x="0px" y="0px"
	 viewBox="0 0 511.997 511.997" style="enable-background:new 0 0 511.997 511.997;" xml:space="preserve">
<path style="fill:#F08AB7;" d="M472.379,437.937c-6.834-31.442-34.633-53.882-66.808-53.924h-81.313l-68.259,68.259l-68.259-68.259
	h-81.313c-32.175,0.043-59.974,22.483-66.808,53.924l-13.993,65.528h460.746L472.379,437.937z"/>
<path style="fill:#F9F5F2;" d="M153.611,349.2v-0.768c-0.597-0.085-1.195-0.171-1.706-0.256
	C152.417,348.518,153.014,348.859,153.611,349.2z"/>
<path style="fill:#A05D35;" d="M392.431,141.694C390.546,66.345,327.936,6.789,252.586,8.675
	c-72.696,1.817-131.202,60.324-133.019,133.019c-31.749,18.268-51.305,52.107-51.279,88.736v17.065
	c-0.017,49.317,35.136,91.637,83.617,100.682c0.512,0.085,1.109,0.171,1.706,0.256v-66.808c-18.848,0-34.129-15.281-34.129-34.129
	s15.281-34.129,34.129-34.129v-8.532h110.92c36.604,0.026,70.434-19.496,88.736-51.194h5.119v59.726
	c18.848,0,34.129,15.281,34.129,34.129s-15.281,34.129-34.129,34.129v66.808c0.597-0.085,1.195-0.171,1.706-0.256
	c48.481-9.044,83.634-51.365,83.617-100.682V230.43C443.728,193.801,424.172,159.962,392.431,141.694z"/>
<g>
	<path style="fill:#F9F5F2;" d="M358.387,349.2c0.597-0.341,1.195-0.683,1.706-1.024c-0.512,0.085-1.109,0.171-1.706,0.256V349.2z"
		/>
	<path style="fill:#F9F5F2;" d="M119.482,247.495c0,18.848,15.281,34.129,34.129,34.129v-68.259
		C134.755,213.366,119.482,228.647,119.482,247.495z"/>
	<path style="fill:#F9F5F2;" d="M392.517,247.495c0-18.848-15.281-34.129-34.129-34.129v68.259
		C377.235,281.624,392.517,266.343,392.517,247.495z"/>
	<path style="fill:#F9F5F2;" d="M353.268,153.639c-18.302,31.698-52.133,51.22-88.736,51.194h-110.92v119.453
		c0,18.848,15.281,34.129,34.129,34.129h136.517c18.848,0,34.129-15.281,34.129-34.129V153.639H353.268z"/>
	<polygon style="fill:#F9F5F2;" points="324.258,384.012 324.258,358.415 187.741,358.415 187.741,384.012 255.999,452.271 	"/>
</g>
<path style="fill:#231F20;" d="M480.716,436.119c-7.816-35.281-39.01-60.452-75.144-60.639H332.79v-9.386
	c7.543-1.587,14.514-5.196,20.162-10.444c0.375,0.341,0.768,0.64,1.195,0.913c1.297,0.751,2.764,1.143,4.266,1.143
	c1.493-0.009,2.969-0.401,4.266-1.143l0.631-0.384c51.757-10.409,88.975-55.895,88.933-108.685V230.43
	c-0.06-37.952-19.462-73.259-51.467-93.659c-1.493-27.5-10.836-53.993-26.928-76.339l0,0
	c-46.74-65.059-137.371-79.914-202.43-33.174c-35.563,25.554-57.687,65.801-60.187,109.521
	c-32.005,20.401-51.407,55.699-51.476,93.651v17.065c-0.026,52.764,37.167,98.233,88.89,108.668l0.717,0.444
	c1.126,0.64,2.406,0.964,3.703,0.956c1.698-0.026,3.362-0.495,4.821-1.365c0.333-0.222,0.64-0.469,0.93-0.742
	c5.691,5.35,12.747,9.036,20.392,10.64v9.386h-72.781c-36.143,0.188-67.346,25.384-75.153,60.673l-13.993,65.528
	c-0.981,4.607,1.954,9.138,6.561,10.128c0.589,0.128,1.186,0.188,1.783,0.188h460.746c4.71,0,8.532-3.823,8.532-8.532
	c0-0.597-0.06-1.195-0.188-1.783L480.716,436.119z M196.273,366.948h119.453v13.532l-59.726,59.726l-59.726-59.726L196.273,366.948
	L196.273,366.948z M369.138,224.347c0.947,0.444,1.86,0.939,2.747,1.493c0.418,0.256,0.853,0.512,1.237,0.794
	c1.007,0.717,1.962,1.502,2.858,2.355c0.188,0.179,0.401,0.333,0.58,0.512c1.041,1.058,1.997,2.193,2.841,3.413
	c0.23,0.341,0.427,0.717,0.648,1.067c0.58,0.93,1.109,1.894,1.57,2.884c0.213,0.469,0.41,0.947,0.589,1.433
	c0.392,0.998,0.708,2.031,0.956,3.072c0.119,0.469,0.256,0.921,0.341,1.399c0.631,3.097,0.631,6.288,0,9.386
	c-0.085,0.478-0.222,0.93-0.341,1.399c-0.247,1.041-0.572,2.073-0.956,3.072c-0.188,0.486-0.375,0.964-0.589,1.425
	c-0.461,0.998-0.981,1.962-1.57,2.892c-0.222,0.35-0.418,0.725-0.648,1.067c-0.845,1.22-1.8,2.355-2.841,3.413
	c-0.179,0.179-0.392,0.333-0.58,0.512c-0.896,0.853-1.852,1.638-2.858,2.355c-0.401,0.282-0.853,0.538-1.237,0.793
	c-0.887,0.555-1.8,1.049-2.747,1.493c-0.461,0.213-0.922,0.435-1.391,0.623c-0.264,0.102-0.555,0.154-0.853,0.256v-47.986
	c0.273,0.102,0.555,0.154,0.853,0.256C368.217,223.912,368.677,224.133,369.138,224.347z M388.174,149.083
	c29.044,16.809,46.945,47.798,47.005,81.347v17.065c0.051,42.005-27.841,78.924-68.259,90.357v-48.549l0,0
	c0.154,0,0.29-0.102,0.444-0.137c2.432-0.529,4.804-1.263,7.107-2.21c0.811-0.333,1.553-0.776,2.338-1.16
	c1.57-0.734,3.089-1.561,4.556-2.474c0.853-0.546,1.613-1.16,2.415-1.766c1.28-0.939,2.508-1.945,3.669-3.02
	c0.759-0.717,1.468-1.459,2.176-2.227c1.058-1.143,2.048-2.346,2.969-3.601c0.623-0.853,1.22-1.706,1.783-2.56
	c0.845-1.365,1.604-2.764,2.287-4.215c0.444-0.904,0.904-1.792,1.28-2.73c0.631-1.672,1.16-3.379,1.578-5.119
	c0.222-0.853,0.512-1.655,0.683-2.517c1.092-5.35,1.092-10.862,0-16.211c-0.171-0.853-0.461-1.706-0.683-2.56
	c-0.427-1.724-0.947-3.421-1.578-5.077c-0.375-0.939-0.853-1.826-1.28-2.73c-0.683-1.45-1.442-2.85-2.287-4.215
	c-0.563-0.853-1.16-1.706-1.783-2.56c-0.922-1.254-1.911-2.457-2.969-3.601c-0.708-0.768-1.416-1.51-2.176-2.227
	c-1.16-1.075-2.389-2.082-3.669-3.02c-0.802-0.606-1.57-1.22-2.415-1.766c-1.468-0.913-2.986-1.741-4.556-2.474
	c-0.785-0.384-1.527-0.853-2.338-1.16c-2.304-0.947-4.676-1.681-7.107-2.21c-0.154,0-0.29-0.102-0.444-0.137l0,0v-51.979
	c-0.017-1.032-0.222-2.056-0.606-3.02c-0.119-0.273-0.256-0.538-0.401-0.794c-0.145-0.367-0.324-0.725-0.529-1.067
	c0.333-0.717,0.589-1.451,0.853-2.176c0.264-0.725,0.683-1.63,1.015-2.449c1.544-3.754,2.884-7.594,4.002-11.493
	c2.764-9.829,4.172-19.983,4.198-30.196v-3.413c5.256,13.711,8.123,28.225,8.456,42.909
	C383.993,144.902,385.606,147.607,388.174,149.083z M76.82,247.495V230.43c0.06-33.549,17.961-64.539,47.005-81.347
	c2.577-1.485,4.198-4.215,4.266-7.193c1.749-70.665,60.452-126.526,131.116-124.777c39.138,0.973,75.673,19.795,99.18,51.109v34.223
	c-0.009,8.652-1.195,17.261-3.532,25.597c-2.082,7.457-5.102,14.624-8.976,21.331c-16.834,29.001-47.815,46.877-81.347,46.928
	h-110.92c-4.71,0-8.532,3.822-8.532,8.532v0.853l0,0c-0.154,0-0.29,0.102-0.444,0.137c-2.432,0.529-4.804,1.263-7.107,2.21
	c-0.811,0.333-1.553,0.776-2.338,1.16c-1.57,0.734-3.089,1.553-4.556,2.474c-0.853,0.546-1.613,1.16-2.423,1.766
	c-1.271,0.939-2.5,1.945-3.66,3.02c-0.759,0.717-1.468,1.459-2.176,2.227c-1.058,1.143-2.048,2.346-2.969,3.601
	c-0.623,0.853-1.22,1.706-1.783,2.56c-0.845,1.365-1.604,2.764-2.287,4.215c-0.444,0.904-0.904,1.792-1.28,2.73
	c-0.631,1.655-1.152,3.345-1.578,5.068c-0.213,0.853-0.512,1.655-0.683,2.56c-1.092,5.35-1.092,10.862,0,16.211
	c0.171,0.853,0.469,1.706,0.683,2.56c0.427,1.724,0.947,3.413,1.578,5.068c0.375,0.939,0.853,1.826,1.28,2.73
	c0.683,1.451,1.442,2.85,2.287,4.215c0.563,0.853,1.16,1.706,1.783,2.56c0.921,1.254,1.911,2.457,2.969,3.601
	c0.708,0.768,1.416,1.51,2.176,2.227c1.16,1.075,2.389,2.082,3.66,3.02c0.811,0.606,1.578,1.22,2.423,1.766
	c1.468,0.922,2.986,1.741,4.556,2.474c0.785,0.384,1.527,0.853,2.338,1.16c2.304,0.947,4.676,1.681,7.107,2.21
	c0.154,0,0.29,0.102,0.444,0.137l0,0v48.54C104.636,326.462,76.743,289.517,76.82,247.495z M142.869,270.652
	c-0.947-0.444-1.869-0.947-2.756-1.502c-0.418-0.256-0.853-0.512-1.237-0.794c-1.007-0.717-1.962-1.502-2.858-2.355
	c-0.188-0.179-0.401-0.333-0.58-0.512c-1.041-1.058-1.997-2.193-2.841-3.413c-0.23-0.341-0.427-0.717-0.648-1.067
	c-0.589-0.93-1.109-1.894-1.57-2.892c-0.213-0.461-0.401-0.939-0.589-1.416c-0.384-1.007-0.708-2.039-0.964-3.08
	c-0.111-0.469-0.247-0.93-0.333-1.399c-0.631-3.097-0.631-6.288,0-9.386c0.085-0.478,0.222-0.93,0.341-1.399
	c0.256-1.049,0.572-2.073,0.956-3.08c0.188-0.478,0.375-0.956,0.589-1.416c0.461-0.998,0.981-1.962,1.57-2.892
	c0.222-0.35,0.418-0.725,0.648-1.067c0.845-1.22,1.8-2.355,2.841-3.413c0.179-0.179,0.392-0.333,0.58-0.512
	c0.896-0.853,1.852-1.638,2.858-2.355c0.401-0.282,0.853-0.538,1.237-0.794c0.887-0.555,1.8-1.049,2.747-1.493
	c0.461-0.213,0.921-0.435,1.391-0.623c0.264-0.102,0.555-0.154,0.853-0.256v48.054c-0.273-0.102-0.563-0.154-0.853-0.264
	C143.782,271.078,143.321,270.857,142.869,270.652z M162.144,324.286v-110.92h27.969c-1.536,2.585-2.355,5.529-2.372,8.532
	c0,9.428,7.636,17.065,17.065,17.065s17.065-7.636,17.065-17.065c-0.017-3.003-0.836-5.947-2.372-8.532h45.034
	c3.703-0.017,7.406-0.23,11.092-0.623c0.657-0.068,1.314-0.119,1.971-0.196c3.524-0.427,7.005-1.015,10.452-1.775
	c0.665-0.145,1.314-0.307,1.979-0.461c2.278-0.538,4.505-1.143,6.689-1.817c-7.355,5.811-8.601,16.484-2.782,23.839
	c5.811,7.355,16.484,8.601,23.839,2.782c7.355-5.811,8.601-16.484,2.782-23.839c-3.234-4.087-8.157-6.459-13.362-6.442h-0.119
	c1.237-0.512,2.432-1.092,3.643-1.655c0.563-0.256,1.126-0.495,1.706-0.759c3.157-1.519,6.237-3.183,9.232-4.983
	c0.58-0.35,1.16-0.717,1.706-1.075c3.029-1.903,5.973-3.908,8.84-6.092c0.205-0.154,0.392-0.324,0.589-0.478
	c2.73-2.125,5.341-4.394,7.858-6.766c0.435-0.41,0.853-0.802,1.314-1.22c2.56-2.449,4.906-5.026,7.193-7.679
	c0.213-0.256,0.469-0.478,0.683-0.734v150.894c0,14.138-11.459,25.597-25.597,25.597h-136.5
	C173.603,349.883,162.144,338.424,162.144,324.286z M408.276,494.933l-7.346-44.07l-16.826,2.816l6.877,41.254H121.018l6.877-41.254
	l-16.826-2.816l-7.346,44.07H36.172l11.783-55.187c6.084-27.457,30.35-47.047,58.472-47.201h77.781l65.759,65.759
	c3.328,3.328,8.737,3.328,12.065,0l65.759-65.759h77.781c28.114,0.154,52.38,19.727,58.464,47.175l11.792,55.213H408.276z"/>
<g>
</g>
<g>
</g>
<g>
</g>
<g>
</g>
<g>
</g>
<g>
</g>
<g>
</g>
<g>
</g>
<g>
</g>
<g>
</g>
<g>
</g>
<g>
</g>
<g>
</g>
<g>
</g>
<g>
</g>
</svg>
