<?xml version="1.0" encoding="iso-8859-1"?>
<!-- Generator: Adobe Illustrator 19.0.0, SVG Export Plug-In . SVG Version: 6.00 Build 0)  -->
<svg version="1.1" id="Capa_1" xmlns="http://www.w3.org/2000/svg" xmlns:xlink="http://www.w3.org/1999/xlink" x="0px" y="0px"
	 viewBox="0 0 512 512" style="enable-background:new 0 0 512 512;" xml:space="preserve">
<path style="fill:#F9F5F2;" d="M222.427,436.459h67.148c18.516-0.059,33.515-15.058,33.574-33.574v-41.967H188.853v41.967
	C188.912,421.401,203.911,436.4,222.427,436.459z"/>
<path style="fill:#24537E;" d="M468.858,439.145c-6.723-30.93-34.069-53.005-65.721-53.047h-79.99v16.787
	c-0.059,18.516-15.058,33.515-33.574,33.574h-67.148c-18.516-0.059-33.515-15.058-33.574-33.574v-16.787h-79.99
	c-31.652,0.042-58.998,22.117-65.721,53.047l-13.765,64.462h453.246L468.858,439.145z"/>
<path style="fill:#F9F5F2;" d="M155.279,285.377v-67.148c-18.541,0-33.574,15.033-33.574,33.574S136.738,285.377,155.279,285.377z"
	/>
<g>
	<path style="fill:#FDCA6E;" d="M368.137,89.306c-14.126-14.21-33.347-22.184-53.382-22.159h-9.149
		c0.512-2.77,0.764-5.582,0.755-8.393c0-27.816-22.545-50.361-50.361-50.361c-27.816,0-50.361,22.545-50.361,50.361
		c-0.008,2.812,0.243,5.624,0.755,8.393h-9.149c-41.724,0-75.541,33.817-75.541,75.541v109.115
		c0-18.541,15.033-33.574,33.574-33.574v-58.754h201.443v58.754c18.541,0,33.574,15.033,33.574,33.574V142.689
		C390.321,122.653,382.347,103.432,368.137,89.306z"/>
	<path style="fill:#FDCA6E;" d="M140.7,340.547c3.206,3.391,8.545,3.542,11.935,0.336c1.67-1.578,2.627-3.777,2.644-6.077v-49.429
		c-18.541,0-33.574-15.033-33.574-33.574v41.967C121.68,311.246,128.496,328.041,140.7,340.547z"/>
	<path style="fill:#FDCA6E;" d="M356.722,285.377v49.429c0.034,4.667,3.844,8.419,8.503,8.385c2.3-0.017,4.499-0.974,6.077-2.644
		c12.204-12.506,19.02-29.302,18.994-46.777v-41.967C390.296,270.344,375.263,285.377,356.722,285.377z"/>
</g>
<g>
	<path style="fill:#F9F5F2;" d="M356.722,218.229v67.148c18.541,0,33.574-15.033,33.574-33.574S375.263,218.229,356.722,218.229z"/>
	<path style="fill:#F9F5F2;" d="M155.279,159.475v167.869c0,18.541,15.033,33.574,33.574,33.574h134.295
		c18.541,0,33.574-15.033,33.574-33.574V159.475H155.279z"/>
</g>
<g>
	<path style="fill:#231F20;" d="M477.059,437.357c-7.688-34.707-38.375-59.468-73.921-59.652h-71.596v-9.233
		c11.037-2.283,20.69-8.914,26.784-18.39c0.151,0.067,0.269,0.185,0.42,0.243c6.404,2.619,13.765,1.074,18.566-3.911
		c13.757-14.067,21.428-32.969,21.378-52.644V142.689c-0.076-46.323-37.611-83.859-83.934-83.934C314.755,26.305,288.45,0,256.001,0
		s-58.754,26.305-58.754,58.754c-46.332,0.05-83.884,37.603-83.934,83.934V293.77c-0.05,19.666,7.63,38.576,21.378,52.635
		c4.801,4.986,12.162,6.53,18.566,3.911c0.151-0.059,0.269-0.176,0.42-0.243c6.094,9.485,15.746,16.107,26.783,18.398v9.233h-71.596
		c-35.555,0.185-66.249,24.97-73.929,59.686l-13.765,64.462c-0.965,4.532,1.922,8.989,6.455,9.963
		c0.579,0.126,1.167,0.185,1.754,0.185h453.246c4.633,0,8.393-3.76,8.393-8.393c0-0.588-0.059-1.175-0.185-1.754L477.059,437.357z
		 M197.247,369.311h117.508v33.574c0,13.908-11.272,25.18-25.18,25.18h-67.148c-13.908,0-25.18-11.272-25.18-25.18V369.311z
		 M365.115,228.058c13.111,4.625,19.993,19.011,15.368,32.122c-2.535,7.185-8.184,12.834-15.368,15.368V228.058z M365.115,334.806
		v-41.875c6.11-1.293,11.843-3.945,16.787-7.764v8.603C381.936,309.13,375.909,323.878,365.115,334.806z M381.902,193.049v25.39
		c-4.944-3.819-10.676-6.471-16.787-7.764v-0.839c0.68-0.504,1.242-1.125,1.905-1.679c1.805-1.444,3.534-2.946,5.204-4.516
		c1.074-1.007,2.14-2.023,3.156-3.089c1.628-1.679,3.139-3.483,4.616-5.305C380.601,194.501,381.323,193.83,381.902,193.049z
		 M226.372,29.075c16.418-16.367,42.983-16.325,59.35,0.092c7.831,7.856,12.238,18.491,12.246,29.587h-83.934
		C213.983,47.608,218.432,36.906,226.372,29.075z M197.247,75.541h117.508c37.057,0.067,67.08,30.09,67.148,67.148
		c-0.017,2.501-0.168,5.002-0.462,7.487c-0.084,0.722-0.193,1.427-0.294,2.14c-0.269,1.855-0.613,3.693-1.032,5.498
		c-0.151,0.663-0.285,1.335-0.462,1.989c-0.613,2.359-1.351,4.684-2.216,6.967c-0.109,0.285-0.243,0.546-0.361,0.839
		c-0.797,2.006-1.679,3.953-2.686,5.875c-0.336,0.646-0.688,1.276-1.041,1.914c-0.915,1.679-1.905,3.231-2.954,4.784
		c-0.344,0.52-0.672,1.049-1.032,1.553c-1.326,1.847-2.745,3.618-4.247,5.313v-27.572c0-4.633-3.76-8.393-8.393-8.393H155.279
		c-4.633,0-8.393,3.76-8.393,8.393v27.472c-0.269-0.311-0.562-0.604-0.839-0.915c-0.604-0.705-1.175-1.427-1.746-2.149
		c-0.739-0.948-1.46-1.905-2.149-2.887c-0.529-0.755-1.041-1.519-1.536-2.291c-0.646-1.007-1.259-2.031-1.847-3.072
		c-0.453-0.789-0.89-1.586-1.309-2.392c-0.546-1.074-1.058-2.157-1.544-3.257c-0.369-0.839-0.73-1.679-1.066-2.468
		c-0.453-1.142-0.839-2.291-1.234-3.458c-0.277-0.839-0.579-1.679-0.839-2.518c-0.353-1.234-0.646-2.518-0.932-3.735
		c-0.185-0.797-0.394-1.595-0.554-2.401c-0.26-1.402-0.445-2.812-0.621-4.197c-0.092-0.697-0.218-1.377-0.285-2.082
		c-0.176-2.132-0.285-4.272-0.285-6.438C130.141,105.623,160.181,75.583,197.247,75.541z M146.794,275.506
		c-13.085-4.7-19.892-19.12-15.192-32.206c2.552-7.109,8.167-12.699,15.284-15.226L146.794,275.506z M137.855,201.929
		c1.679,1.679,3.441,3.29,5.321,4.877c0.546,0.462,1.108,0.906,1.679,1.351c0.571,0.445,1.318,1.108,2.031,1.679v0.839
		c-6.11,1.293-11.843,3.945-16.787,7.764v-25.39c0.252,0.336,0.571,0.621,0.839,0.948
		C133.079,196.784,135.387,199.437,137.855,201.929z M130.099,293.77v-8.612c4.91,3.794,10.609,6.438,16.669,7.739l-0.059,41.791
		C136.025,323.752,130.057,309.063,130.099,293.77z M163.673,327.344V167.869h184.656v159.475c0,13.908-11.272,25.18-25.18,25.18
		H188.853C174.945,352.525,163.673,341.252,163.673,327.344z M405.798,495.213l-7.227-43.352l-16.552,2.77l6.765,40.582H123.216
		l6.765-40.582l-16.552-2.77l-7.227,43.352H39.752l11.591-54.289c5.985-27.01,29.855-46.281,57.52-46.433h71.596v8.393
		c0.025,23.166,18.801,41.942,41.967,41.967h67.148c23.166-0.025,41.942-18.801,41.967-41.967v-8.393h71.596
		c27.656,0.151,51.527,19.406,57.512,46.407l11.6,54.314H405.798z"/>
	<circle style="fill:#231F20;" cx="306.361" cy="226.623" r="16.787"/>
	<circle style="fill:#231F20;" cx="205.64" cy="226.623" r="16.787"/>
</g>
<g>
</g>
<g>
</g>
<g>
</g>
<g>
</g>
<g>
</g>
<g>
</g>
<g>
</g>
<g>
</g>
<g>
</g>
<g>
</g>
<g>
</g>
<g>
</g>
<g>
</g>
<g>
</g>
<g>
</g>
</svg>
