<?xml version="1.0" encoding="iso-8859-1"?>
<!-- Generator: Adobe Illustrator 19.0.0, SVG Export Plug-In . SVG Version: 6.00 Build 0)  -->
<svg version="1.1" id="Capa_1" xmlns="http://www.w3.org/2000/svg" xmlns:xlink="http://www.w3.org/1999/xlink" x="0px" y="0px"
	 viewBox="0 0 512 512" style="enable-background:new 0 0 512 512;" xml:space="preserve">
<path style="fill:#F9F5F2;" d="M221.867,435.2h68.267c18.825-0.06,34.074-15.309,34.133-34.133V358.4H187.734v42.667
	C187.794,419.891,203.043,435.14,221.867,435.2z"/>
<path style="fill:#C84339;" d="M472.406,437.931c-6.835-31.445-34.637-53.888-66.816-53.931h-81.323v17.067
	c-0.06,18.825-15.309,34.074-34.133,34.133h-68.267c-18.825-0.06-34.074-15.309-34.133-34.133V384h-81.323
	c-32.179,0.043-59.981,22.485-66.816,53.931l-13.995,65.536h460.8L472.406,437.931z"/>
<g>
	<path style="fill:#F9F5F2;" d="M358.401,324.267V153.6h-204.8v170.667c0,18.85,15.283,34.133,34.133,34.133h136.533
		C343.117,358.4,358.401,343.117,358.401,324.267z M204.801,230.4c-4.71,0-8.533-3.823-8.533-8.533c0-4.71,3.823-8.533,8.533-8.533
		s8.533,3.823,8.533,8.533C213.334,226.577,209.511,230.4,204.801,230.4z M307.201,230.4c-4.71,0-8.533-3.823-8.533-8.533
		c0-4.71,3.823-8.533,8.533-8.533s8.533,3.823,8.533,8.533C315.734,226.577,311.911,230.4,307.201,230.4z"/>
	<path style="fill:#F9F5F2;" d="M358.401,213.333V281.6c1.314,0,2.628-0.085,3.925-0.256c15.155-1.724,27.307-13.346,29.696-28.416
		c0.341-1.801,0.512-3.627,0.512-5.461C392.534,228.617,377.251,213.333,358.401,213.333z"/>
	<path style="fill:#F9F5F2;" d="M119.467,247.467c0,1.835,0.171,3.661,0.512,5.461c2.389,15.07,14.541,26.692,29.696,28.416
		c1.306,0.171,2.611,0.256,3.925,0.256v-68.267C134.751,213.333,119.467,228.617,119.467,247.467z"/>
</g>
<g>
	<path style="fill:#A05D35;" d="M392.534,247.467v-102.4c0-75.409-61.124-136.533-136.533-136.533S119.467,69.658,119.467,145.067
		v102.4c0-18.85,15.283-34.133,34.133-34.133V153.6h204.8v59.733C377.251,213.333,392.534,228.617,392.534,247.467z"/>
	<path style="fill:#A05D35;" d="M392.022,252.928c-2.389,15.07-14.541,26.692-29.696,28.416l30.208,85.589l51.2-17.067
		L392.022,252.928z"/>
	<path style="fill:#A05D35;" d="M119.979,252.928l-51.712,96.939l51.2,17.067l30.208-85.589
		C134.52,279.62,122.369,267.998,119.979,252.928z"/>
</g>
<g>
	<circle style="fill:#F9F5F2;" cx="307.201" cy="221.867" r="8.533"/>
	<circle style="fill:#F9F5F2;" cx="204.801" cy="221.867" r="8.533"/>
</g>
<g>
	<path style="fill:#231F20;" d="M480.752,436.113c-7.825-35.277-39.023-60.45-75.162-60.646h-72.789v-9.387
		c19.849-4.079,34.108-21.547,34.133-41.813v-4.215l17.553,49.724c1.553,4.386,6.332,6.716,10.743,5.248l51.2-17.067
		c4.471-1.485,6.895-6.315,5.402-10.786c-0.154-0.452-0.341-0.896-0.563-1.323l-50.543-94.72c0.179-1.212,0.29-2.432,0.341-3.661
		v-102.4C401.067,64.947,336.12,0,256.001,0S110.934,64.947,110.934,145.067v102.4c0.051,1.22,0.162,2.441,0.333,3.652
		l-50.534,94.72c-2.219,4.156-0.64,9.327,3.516,11.546c0.427,0.222,0.862,0.418,1.323,0.563l51.2,17.067
		c4.412,1.468,9.19-0.862,10.743-5.248l17.553-49.715v4.215c0.026,20.267,14.285,37.734,34.133,41.813v9.387h-72.789
		c-36.147,0.196-67.354,25.387-75.162,60.681l-13.995,65.536c-0.981,4.608,1.954,9.139,6.562,10.129
		c0.589,0.128,1.186,0.188,1.783,0.188h460.8c4.71,0,8.533-3.823,8.533-8.533c0-0.597-0.06-1.195-0.188-1.783L480.752,436.113z
		 M196.267,366.933h119.467v34.133c0,14.14-11.46,25.6-25.6,25.6h-68.267c-14.14,0-25.6-11.46-25.6-25.6V366.933z M369.119,224.299
		c0.964,0.444,1.903,0.956,2.799,1.519c0.41,0.256,0.853,0.503,1.212,0.777c1.015,0.725,1.98,1.519,2.884,2.381
		c0.179,0.171,0.384,0.316,0.563,0.495c1.041,1.058,1.988,2.202,2.842,3.413c0.23,0.341,0.427,0.717,0.649,1.067
		c0.58,0.93,1.109,1.894,1.57,2.884c0.213,0.469,0.41,0.947,0.589,1.434c0.393,0.998,0.708,2.031,0.956,3.072
		c0.119,0.469,0.256,0.922,0.341,1.399c0.307,1.553,0.469,3.14,0.478,4.727c0,1.382-0.137,2.756-0.401,4.113
		c-0.35,2.057-0.964,4.07-1.818,5.973c-0.145,0.341-0.273,0.691-0.435,1.024c-0.862,1.792-1.929,3.473-3.183,5.018
		c-0.196,0.23-0.41,0.444-0.606,0.674c-2.782,3.157-6.298,5.581-10.24,7.057l-0.427,0.162v-48.051
		c0.282,0.102,0.58,0.162,0.853,0.265C368.24,223.881,368.683,224.094,369.119,224.299z M397.791,356.181l-24.294-68.83
		c0.555-0.213,1.067-0.521,1.613-0.751c0.93-0.401,1.843-0.853,2.748-1.28c0.905-0.427,2.014-1.118,2.987-1.707
		s1.758-1.092,2.56-1.707c0.802-0.614,1.707-1.348,2.56-2.057c0.853-0.708,1.707-1.4,2.449-2.167c0.742-0.768,1.289-1.425,1.92-2.15
		c0.811-0.922,1.63-1.809,2.355-2.79l0.128-0.154l38.622,72.397L397.791,356.181z M128.001,145.067c0-70.69,57.31-128,128-128
		s128,57.31,128,128v68.267c-0.418-0.316-0.853-0.572-1.297-0.853c-0.444-0.282-0.691-0.469-1.041-0.7
		c-2.022-1.314-4.147-2.458-6.357-3.413c-0.316-0.137-0.631-0.247-0.947-0.375c-2.355-0.973-4.787-1.732-7.279-2.261l-0.145-0.077
		l0,0v-86.187h-17.067v25.6h-34.133V102.4h-17.067v42.667h-34.133V85.333h-17.067v59.733h-34.133V102.4h-17.067v42.667h-34.133
		v-25.6h-17.067v86.187l0,0h-0.119c-2.492,0.529-4.924,1.289-7.279,2.261c-0.316,0.128-0.631,0.239-0.947,0.375
		c-2.21,0.956-4.335,2.099-6.357,3.413c-0.35,0.23-0.7,0.461-1.041,0.7c-0.341,0.239-0.853,0.555-1.297,0.853L128.001,145.067z
		 M134.324,264.149c-0.128-0.154-0.273-0.299-0.401-0.452c-1.357-1.647-2.5-3.456-3.413-5.385c-0.094-0.188-0.162-0.384-0.247-0.572
		c-0.922-2.048-1.57-4.207-1.937-6.417c-0.23-1.271-0.341-2.56-0.324-3.857c0.009-1.579,0.171-3.157,0.478-4.702
		c0.085-0.478,0.222-0.93,0.341-1.399c0.256-1.05,0.572-2.074,0.956-3.081c0.188-0.478,0.375-0.956,0.589-1.417
		c0.461-0.998,0.981-1.963,1.57-2.893c0.222-0.35,0.418-0.725,0.649-1.067c0.853-1.212,1.801-2.355,2.842-3.413
		c0.179-0.179,0.384-0.324,0.563-0.495c0.905-0.862,1.869-1.655,2.884-2.381c0.393-0.273,0.802-0.521,1.203-0.777
		c0.905-0.563,1.843-1.075,2.807-1.519c0.435-0.205,0.853-0.418,1.331-0.597c0.273-0.102,0.572-0.162,0.853-0.265v48.06
		c-0.205-0.068-0.41-0.145-0.606-0.23C140.545,269.79,137.063,267.332,134.324,264.149z M114.211,356.181l-33.664-11.213
		l38.622-72.397c0.068,0.094,0.154,0.171,0.222,0.265c0.572,0.777,1.229,1.459,1.852,2.193c0.768,0.905,1.519,1.818,2.364,2.654
		c0.845,0.836,1.604,1.451,2.432,2.159c0.828,0.708,1.579,1.365,2.423,1.98c0.845,0.614,1.92,1.306,2.918,1.92
		c0.853,0.512,1.647,1.007,2.509,1.459c1.058,0.555,2.15,1.05,3.26,1.51c0.461,0.196,0.853,0.461,1.357,0.64L114.211,356.181z
		 M162.134,324.267V162.133h187.733v162.133c0,14.14-11.46,25.6-25.6,25.6H187.734C173.594,349.867,162.134,338.406,162.134,324.267
		z M408.295,494.933l-7.347-44.066l-16.828,2.799l6.878,41.267H121.003l6.878-41.267l-16.828-2.799l-7.347,44.066H36.148
		l11.785-55.185c6.076-27.46,30.353-47.061,58.479-47.215h72.789v8.533c0.026,23.552,19.115,42.641,42.667,42.667h68.267
		c23.552-0.026,42.641-19.115,42.667-42.667v-8.533h72.789c28.117,0.154,52.386,19.738,58.479,47.181l11.785,55.219H408.295z"/>
	<circle style="fill:#231F20;" cx="307.201" cy="221.867" r="17.067"/>
	<circle style="fill:#231F20;" cx="204.801" cy="221.867" r="17.067"/>
</g>
<g>
</g>
<g>
</g>
<g>
</g>
<g>
</g>
<g>
</g>
<g>
</g>
<g>
</g>
<g>
</g>
<g>
</g>
<g>
</g>
<g>
</g>
<g>
</g>
<g>
</g>
<g>
</g>
<g>
</g>
</svg>
